<svg viewBox="-27 0 511 511.99846" xmlns="http://www.w3.org/2000/svg"><path d="m150.492188 330h90v-120h60v-89.996094h-60v-60h-90v60h-60v89.996094h60zm-30-150v-29.996094h60v-60h30v60h60v29.996094h-60v120h-30v-120zm0 0"/><path d="m90.492188 409.457031v102.542969h210v-91h90v-96.730469l66.902343-33.449219-66.957031-100.441406c-2.691406-113-101.621094-202.710937-218.484375-188.988281-85.210937 10-155.949219 77.722656-169.074219 162.796875-9.601562 62.230469 10.144532 123.300781 54.179688 167.554688 21.246094 21.355468 33.433594 49.679687 33.433594 77.714843zm-57.96875-240.695312c11-71.289063 71.109374-129.148438 142.925781-137.578125 102.074219-11.984375 185.042969 67.996094 185.042969 163.816406v4.542969l53.09375 79.640625-53.09375 26.546875v85.269531h-90v91h-150v-72.539062c0-35.90625-15.371094-71.945313-42.167969-98.878907-37.238281-37.421875-53.929688-89.113281-45.800781-141.820312zm0 0"/></svg>